# xmcd
#
# Track frame offsets: 
#        150
#        11546
#        24118
#        35067
#        46257
#        58602
#        70179
#        82683
#        93857
#        103446
#        116431
#        127432
#        140046
#        152326
#        164097
#        175964
#        187415
#        199054
#        210898
#        222478
#        234823
#        247076
#        258750
#        270404
#        282886
#
# Disc length: 3937 seconds
#
# Revision: 0
# Processed by: cddbd v1.5.2PL0 Copyright (c) Steve Scherf et al.
# Submitted via: ExactAudioCopy v0.99pb4
#
DISCID=650f5f19
DTITLE=Bob Wills and his Texas Playboys - King of Western Swing - Dall
DTITLE=as 1937-1938 [CD3]
DYEAR=2007
DGENRE=Western Swing
TTITLE0=1. Sunbonnet Sue
TTITLE1=2. The New St. Louis Blues
TTITLE2=3. I'm a Ding Dong Daddy from Dumas
TTITLE3=4. Oozlin' Daddy Blues
TTITLE4=5. Black Rider
TTITLE5=6. Everybody Does It in Hawaii
TTITLE6=7. Alexander's Ragtime Band
TTITLE7=8. Blue Prelude
TTITLE8=9. Sophisticated Hula
TTITLE9=10. Pray for the Lights to Go Out
TTITLE10=11. Gambling Polka Dot Blues
TTITLE11=12. Keep Knocking (But You Can't Come In)
TTITLE12=13. Loveless Love
TTITLE13=14. Oh, Lady Be Good
TTITLE14=15. Way Down Upon the Swanee River
TTITLE15=16. Oh You Beautiful Doll
TTITLE16=17. Moonlight and Roses (Bring Mem'ries of You)
TTITLE17=18. I Wish I Could Shimmy Like My Sister Kate
TTITLE18=19. Tulsa Stomp
TTITLE19=20. Empty Bed Blues
TTITLE20=21. Little Red Head
TTITLE21=22. San Antonio Rose
TTITLE22=23. Little Girl, Go Ask Your Mama
TTITLE23=24. Carolina in the Morning
TTITLE24=25. The Convict and the Rose
EXTD=
EXTT0=
EXTT1=
EXTT2=
EXTT3=
EXTT4=
EXTT5=
EXTT6=
EXTT7=
EXTT8=
EXTT9=
EXTT10=
EXTT11=
EXTT12=
EXTT13=
EXTT14=
EXTT15=
EXTT16=
EXTT17=
EXTT18=
EXTT19=
EXTT20=
EXTT21=
EXTT22=
EXTT23=
EXTT24=
PLAYORDER=
